<?xml version="1.0" standalone="no"?><!-- Generator: Gravit.io --><svg xmlns="http://www.w3.org/2000/svg" xmlns:xlink="http://www.w3.org/1999/xlink" style="isolation:isolate" viewBox="374 119 510 510" width="510" height="510"><g><path d="M 629 124 L 629 124 C 766.979 124 879 236.021 879 374 L 879 374 C 879 511.979 766.979 624 629 624 L 629 624 C 491.021 624 379 511.979 379 374 L 379 374 C 379 236.021 491.021 124 629 124 Z" style="fill:none;stroke:#000000;stroke-width:10;stroke-linecap:square;stroke-miterlimit:2;"/><g><path d="M 629 229.655 L 629 229.655 C 674.809 229.655 712 266.846 712 312.655 L 712 312.655 C 712 358.464 674.809 395.655 629 395.655 L 629 395.655 C 583.191 395.655 546 358.464 546 312.655 L 546 312.655 C 546 266.846 583.191 229.655 629 229.655 Z" style="fill:none;stroke:#000000;stroke-width:10;stroke-linecap:square;stroke-miterlimit:2;"/><path d=" M 506.009 516.822 C 506.988 449.78 561.72 395.655 628.994 395.655 L 628.994 395.655 C 696.776 395.655 751.826 450.601 751.991 518.345" fill="none" vector-effect="non-scaling-stroke" stroke-width="10" stroke="rgb(0,0,0)" stroke-linejoin="miter" stroke-linecap="square" stroke-miterlimit="3"/></g></g></svg>